# xmcd CD database file
#
# Track frame offsets:
#	150
#	34838
#	58668
#	72467
#	111463
#	123926
#	140589
#
# Disc length: 2063 seconds
#
# Revision: 0
# Processed by: cddbd v1.5.2PL0 Copyright (c) Steve Scherf et al.
# Submitted via: CDex 1.51
#
DISCID=6b080d07
DTITLE=Creedence Clearwater Revival - Bayou Country
DYEAR=1969
DGENRE=Country
TTITLE0=Creedence Clearwater Revival - Keep On Chooglin'
TTITLE1=Creedence Clearwater Revival - Born On The Bayou
TTITLE2=Creedence Clearwater Revival - Bootleg
TTITLE3=Creedence Clearwater Revival - Graveyard Train
TTITLE4=Creedence Clearwater Revival - Good Golly Miss Molly
TTITLE5=Creedence Clearwater Revival - Penthouse Pauper
TTITLE6=Creedence Clearwater Revival - Proud Mary
EXTD=YEAR: 1969
EXTT0=
EXTT1=
EXTT2=
EXTT3=
EXTT4=
EXTT5=
EXTT6=
PLAYORDER=
